PathFileType	4	(x/y/z)	S04_M20_T39.trc
DataRate	CameraRate	NumFrames	NumMarkers	Units	OrigDataRate	OrigDataStartFrame	OrigNumFrames
240	240	10	51	mm	240	260	519
Frame#	Time	Sternum			R.Acromium			L.Acromium			Top.Head			R.ASIS			L.ASIS			R.PSIS			L.PSIS			R.Great.Tro			L.Great.Tro			R.Iliac.Crest			L.Iliac.Crest			V.Sacral			R.Thigh.Upper.Post			R.Thigh.Lower.Ant			R.Thigh.Lower.Post			R.Thigh.Upper.Ant			R.Knee.Lat			R.Knee.Med			R.Shank.Upper.Post			R.Shank.Lower.Ant			R.Shank.Lower.Post			R.Shank.Upper.Ant			R.Ankle.Lat			R.Ankle.Med			R.Heel.Upper			R.Heel.Med			R.Heel.Lat			R.Toe.Lat			R.Toe.Med			R.Toe.Tip			L.Thigh.Upper.Post			L.Thigh.Lower.Ant			L.Thigh.Lower.Post			L.Thigh.Upper.Ant			L.Knee.Lat			L.Knee.Med			L.Shank.Upper.Post			L.Shank.Lower.Ant			L.Shank.Lower.Post			L.Shank.Upper.Ant			L.Ankle.Lat			L.Ankle.Med			L.Heel.Upper			L.Heel.Med			L.Heel.Lat			L.Toe.Lat			L.Toe.Med			L.Toe.Tip			Cervical.Spine			Back			
		X1	Y1	Z1	X2	Y2	Z2	X3	Y3	Z3	X4	Y4	Z4	X5	Y5	Z5	X6	Y6	Z6	X7	Y7	Z7	X8	Y8	Z8	X9	Y9	Z9	X10	Y10	Z10	X11	Y11	Z11	X12	Y12	Z12	X13	Y13	Z13	X14	Y14	Z14	X15	Y15	Z15	X16	Y16	Z16	X17	Y17	Z17	X18	Y18	Z18	X19	Y19	Z19	X20	Y20	Z20	X21	Y21	Z21	X22	Y22	Z22	X23	Y23	Z23	X24	Y24	Z24	X25	Y25	Z25	X26	Y26	Z26	X27	Y27	Z27	X28	Y28	Z28	X29	Y29	Z29	X30	Y30	Z30	X31	Y31	Z31	X32	Y32	Z32	X33	Y33	Z33	X34	Y34	Z34	X35	Y35	Z35	X36	Y36	Z36	X37	Y37	Z37	X38	Y38	Z38	X39	Y39	Z39	X40	Y40	Z40	X41	Y41	Z41	X42	Y42	Z42	X43	Y43	Z43	X44	Y44	Z44	X45	Y45	Z45	X46	Y46	Z46	X47	Y47	Z47	X48	Y48	Z48	X49	Y49	Z49	X50	Y50	Z50	X51	Y51	Z51	

260	1.0792	639.19	1280.1	270.81	515.66	1504.9	456.91	493.6	1496	106.62	541.79	1833.8	277.6	624.56	999.09	397.83	606.89	1004.8	144.91	403.32	1040.1	310.88	407.68	1041.2	229.52	541.2	921.29	465.6	487.34	922.32	86.585	539.72	1083.7	447.21	506.22	1095.5	107.12	383.36	999.16	271.31	566.36	657.74	436.44	644.1	585.69	388.53	572.36	568.82	415.26	645.91	693.22	417.6	603.96	506.27	399.82	559.65	504.31	271.62	521.36	281.43	395.12	578.35	204.16	340.24	515.78	213.05	376.63	581.99	272.67	367.66	516.85	104.27	351.52	525.54	118.52	259.88	445.9	75.901	299.89	451.39	44.749	270.11	451.55	44.92	335.84	626.57	42.473	368.9	651.16	39.795	246.91	717.61	58.866	287.77	541.42	679.74	91.928	645.99	610.01	87.044	575.92	597.54	101.34	607.15	691.32	75.479	625.68	521.66	99.604	637.69	502.7	231.12	452.06	445.8	115	443.32	334.99	111.09	404.25	385.24	121.9	491.31	394.85	103.67	322.74	240.93	131.7	337.39	246.33	224.52	245.72	269.55	183.46	235.36	246.83	217.37	228.88	246.74	155.71	355.65	117.35	110.54	391.89	103.97	222.73	438.01	76.251	172.69	456.78	1551.8	290.01	379.2	1292.5	267.31
261	1.0833	644	1280.4	270.93	520.44	1505.4	456.86	498.61	1496.4	106.57	546.85	1834.2	277.42	628.66	999.34	398.36	612.19	1005.3	145.32	407.84	1040.5	310.21	412.58	1041.6	228.87	544.73	921.5	465.58	493.11	922.88	86.149	543.67	1084.1	447.25	511.44	1096	107	388.08	999.53	270.54	568.24	657.88	436.52	645.68	585.21	389.05	573.69	568.87	415.49	648.15	692.76	418.07	604.98	506.13	400.22	561.18	504.31	271.82	521.77	281.51	395.19	578.69	204.1	340.4	516.01	213.16	376.6	582.44	272.59	367.89	517.01	104.34	351.43	525.68	118.63	259.84	445.98	76.026	299.81	451.42	44.834	269.97	451.6	45.058	335.79	626.59	42.443	368.93	651.23	39.728	246.9	717.72	58.63	287.83	549.21	680.63	91.663	654.5	611.95	87.256	584.47	598.77	101.22	614.86	692.86	75.478	634.89	523.32	99.864	647.02	504.58	231.37	462.2	444.93	115.02	455.04	334.02	111	415.27	383.65	121.84	502.21	394.56	103.69	335.92	238.07	131.48	350.43	243.72	224.42	258.35	265.35	183.27	248.41	242.4	217.17	241.95	242.24	155.46	370.97	115.14	110.29	407.43	102.35	222.48	454.04	75.466	172.44	461.75	1552.2	289.93	384.1	1292.9	267.18
262	1.0875	648.81	1280.8	271.04	525.21	1505.8	456.81	503.64	1496.8	106.51	551.9	1834.6	277.24	632.74	999.56	398.87	617.47	1005.8	145.72	412.36	1040.8	309.55	417.47	1042	228.22	548.26	921.69	465.55	498.86	923.41	85.724	547.6	1084.4	447.29	516.63	1096.4	106.88	392.8	999.88	269.78	570.14	658.01	436.59	647.26	584.74	389.55	575.05	568.94	415.72	650.4	692.3	418.52	606	506	400.6	562.69	504.31	272.02	522.17	281.61	395.25	579.02	204.05	340.56	516.24	213.27	376.56	582.9	272.5	368.1	517.15	104.42	351.36	525.83	118.75	259.8	446.05	76.151	299.73	451.43	44.916	269.84	451.65	45.194	335.74	626.6	42.414	368.95	651.3	39.66	246.89	717.82	58.395	287.89	556.92	681.5	91.418	662.91	613.86	87.476	592.93	600	101.11	622.5	694.36	75.487	644.01	524.97	100.13	656.27	506.45	231.63	472.31	443.99	115.05	466.78	333.01	110.91	426.3	382	121.8	513.08	394.24	103.71	349.18	235.15	131.26	363.53	241.06	224.34	271.07	261.05	183.09	261.57	237.88	216.99	255.13	237.64	155.22	386.39	112.92	110.04	423.06	100.73	222.23	470.15	74.697	172.18	466.71	1552.7	289.83	388.98	1293.4	267.05
263	1.0917	653.62	1281.1	271.15	529.98	1506.2	456.76	508.66	1497.2	106.45	556.95	1834.9	277.06	636.82	999.75	399.37	622.74	1006.2	146.12	416.89	1041.2	308.89	422.35	1042.3	227.58	551.8	921.86	465.52	504.59	923.91	85.309	551.53	1084.7	447.32	521.79	1096.8	106.76	397.51	1000.2	269.03	572.05	658.15	436.65	648.85	584.26	390.02	576.44	569.01	415.93	652.65	691.83	418.94	607.02	505.87	400.97	564.21	504.3	272.21	522.58	281.71	395.3	579.35	204	340.72	516.47	213.39	376.51	583.35	272.43	368.31	517.29	104.5	351.28	525.96	118.86	259.76	446.13	76.277	299.65	451.43	44.997	269.7	451.7	45.328	335.68	626.62	42.386	368.97	651.37	39.591	246.88	717.93	58.159	287.94	564.56	682.35	91.189	671.24	615.74	87.704	601.3	601.21	101.01	630.07	695.83	75.506	653.04	526.6	100.4	665.44	508.3	231.88	482.4	443	115.09	478.52	331.96	110.84	437.33	380.29	121.77	523.93	393.88	103.73	362.51	232.18	131.05	376.7	238.33	224.27	283.89	256.66	182.9	274.83	233.28	216.81	268.41	232.96	155	401.91	110.69	109.79	438.78	99.099	221.97	486.34	73.948	171.91	471.67	1553	289.73	393.87	1293.8	266.9
264	1.0958	658.43	1281.3	271.25	534.75	1506.5	456.7	513.69	1497.5	106.37	562	1835.2	276.89	640.89	999.91	399.86	628	1006.6	146.52	421.41	1041.5	308.24	427.23	1042.6	226.95	555.36	922.01	465.47	510.3	924.38	84.906	555.47	1085	447.34	526.93	1097.2	106.63	402.22	1000.5	268.3	573.97	658.27	436.69	650.44	583.79	390.46	577.86	569.09	416.14	654.91	691.37	419.33	608.05	505.74	401.33	565.71	504.29	272.38	522.99	281.81	395.35	579.68	203.95	340.87	516.69	213.51	376.46	583.81	272.35	368.51	517.41	104.58	351.21	526.1	118.97	259.71	446.2	76.405	299.58	451.43	45.079	269.57	451.74	45.46	335.62	626.64	42.359	368.99	651.44	39.52	246.86	718.03	57.923	288	572.13	683.18	90.975	679.48	617.59	87.937	609.58	602.4	100.94	637.57	697.27	75.535	661.98	528.21	100.68	674.5	510.13	232.14	492.47	441.94	115.13	490.28	330.88	110.77	448.37	378.52	121.74	534.77	393.48	103.75	375.92	229.15	130.84	389.94	235.56	224.21	296.79	252.19	182.72	288.2	228.61	216.65	281.8	228.2	154.78	417.51	108.45	109.53	454.58	97.471	221.71	502.6	73.224	171.64	476.64	1553.4	289.61	398.75	1294.1	266.75
265	1.1	663.23	1281.6	271.35	539.52	1506.8	456.63	518.73	1497.8	106.28	567.05	1835.5	276.71	644.96	1000	400.33	633.23	1007	146.91	425.93	1041.7	307.59	432.1	1042.9	226.32	558.92	922.14	465.42	515.99	924.83	84.516	559.41	1085.2	447.36	532.05	1097.5	106.51	406.92	1000.7	267.59	575.92	658.39	436.73	652.04	583.33	390.88	579.31	569.17	416.35	657.17	690.9	419.69	609.08	505.61	401.67	567.22	504.28	272.54	523.41	281.93	395.39	580.01	203.91	341.01	516.92	213.64	376.4	584.26	272.29	368.71	517.53	104.66	351.14	526.23	119.08	259.66	446.27	76.534	299.51	451.4	45.162	269.45	451.77	45.593	335.56	626.67	42.333	369.01	651.5	39.448	246.84	718.14	57.686	288.06	579.62	684	90.776	687.62	619.4	88.176	617.77	603.57	100.88	644.99	698.68	75.573	670.83	529.79	100.97	683.47	511.94	232.39	502.52	440.82	115.18	502.05	329.77	110.71	459.42	376.69	121.73	545.58	393.05	103.77	389.39	226.07	130.63	403.24	232.74	224.15	309.8	247.66	182.54	301.67	223.86	216.48	295.3	223.37	154.58	433.2	106.22	109.29	470.45	95.85	221.46	518.93	72.527	171.39	481.6	1553.7	289.48	403.62	1294.5	266.59
266	1.1042	668.03	1281.8	271.44	544.29	1507.1	456.55	523.77	1498	106.18	572.09	1835.7	276.54	649.01	1000.1	400.79	638.46	1007.4	147.3	430.46	1041.9	306.95	436.97	1043.1	225.71	562.49	922.25	465.37	521.67	925.25	84.141	563.37	1085.5	447.38	537.14	1097.8	106.38	411.62	1001	266.88	577.88	658.51	436.76	653.65	582.86	391.28	580.79	569.26	416.54	659.44	690.44	420.02	610.11	505.48	402	568.72	504.26	272.69	523.83	282.05	395.43	580.34	203.87	341.15	517.16	213.77	376.35	584.72	272.22	368.9	517.64	104.75	351.08	526.36	119.2	259.6	446.33	76.665	299.45	451.37	45.25	269.34	451.8	45.726	335.5	626.69	42.308	369.02	651.56	39.374	246.82	718.25	57.449	288.11	587.04	684.78	90.59	695.67	621.17	88.419	625.86	604.72	100.83	652.35	700.05	75.621	679.59	531.34	101.27	692.34	513.72	232.64	512.55	439.65	115.24	513.83	328.62	110.66	470.48	374.81	121.72	556.37	392.58	103.78	402.94	222.95	130.43	416.6	229.88	224.1	322.9	243.05	182.35	315.24	219.06	216.31	308.9	218.47	154.38	448.98	103.99	109.04	486.4	94.24	221.22	535.31	71.862	171.14	486.56	1554	289.35	408.48	1294.8	266.42
267	1.1083	672.83	1282	271.53	549.06	1507.4	456.48	528.83	1498.3	106.08	577.14	1835.9	276.37	653.06	1000.2	401.24	643.66	1007.7	147.67	434.98	1042.2	306.32	441.83	1043.4	225.1	566.08	922.34	465.31	527.33	925.64	83.78	567.35	1085.7	447.38	542.22	1098	106.25	416.32	1001.2	266.2	579.85	658.62	436.78	655.27	582.41	391.65	582.3	569.35	416.73	661.71	689.97	420.33	611.16	505.35	402.31	570.22	504.24	272.84	524.25	282.18	395.46	580.67	203.84	341.29	517.39	213.91	376.28	585.18	272.17	369.08	517.74	104.83	351.02	526.49	119.31	259.54	446.39	76.798	299.39	451.33	45.343	269.23	451.83	45.863	335.43	626.71	42.283	369.04	651.61	39.3	246.79	718.37	57.211	288.17	594.4	685.55	90.416	703.64	622.89	88.666	633.87	605.84	100.8	659.64	701.37	75.677	688.26	532.86	101.57	701.09	515.48	232.9	522.57	438.41	115.31	525.62	327.44	110.62	481.55	372.87	121.71	567.13	392.08	103.8	416.56	219.8	130.22	430.02	226.98	224.05	336.09	238.39	182.15	328.92	214.21	216.14	322.61	213.52	154.18	464.84	101.78	108.81	502.41	92.647	221	551.75	71.23	170.92	491.53	1554.3	289.2	413.34	1295.1	266.24
268	1.1125	677.63	1282.1	271.61	553.82	1507.6	456.39	533.88	1498.4	105.96	582.18	1836.1	276.2	657.09	1000.3	401.67	648.86	1008	148.04	439.51	1042.3	305.69	446.68	1043.6	224.49	569.68	922.41	465.24	532.99	926.01	83.434	571.34	1085.8	447.39	547.29	1098.3	106.12	421.01	1001.4	265.52	581.85	658.72	436.79	656.89	581.95	392	583.83	569.44	416.92	664	689.5	420.61	612.21	505.22	402.62	571.72	504.21	272.98	524.68	282.32	395.49	580.99	203.81	341.43	517.63	214.06	376.22	585.64	272.11	369.26	517.83	104.92	350.96	526.61	119.42	259.47	446.45	76.935	299.33	451.29	45.443	269.14	451.86	46.003	335.36	626.74	42.258	369.05	651.66	39.224	246.76	718.48	56.973	288.23	601.69	686.29	90.254	711.51	624.57	88.916	641.78	606.94	100.78	666.86	702.66	75.743	696.84	534.34	101.88	709.75	517.21	233.16	532.56	437.11	115.37	537.43	326.24	110.58	492.64	370.88	121.71	577.88	391.54	103.82	430.25	216.6	130.02	443.51	224.06	224	349.38	233.68	181.93	342.69	209.32	215.95	336.43	208.53	153.98	480.78	99.572	108.6	518.48	91.075	220.79	568.24	70.636	170.73	496.49	1554.5	289.05	418.2	1295.3	266.05
269	1.1167	682.42	1282.2	271.69	558.59	1507.8	456.3	538.95	1498.6	105.84	587.23	1836.3	276.04	661.11	1000.3	402.09	654.04	1008.3	148.41	444.04	1042.5	305.07	451.53	1043.7	223.9	573.29	922.45	465.17	538.63	926.35	83.103	575.35	1086	447.38	552.34	1098.4	105.99	425.7	1001.5	264.87	583.87	658.82	436.8	658.53	581.5	392.33	585.39	569.53	417.1	666.3	689.02	420.87	613.28	505.09	402.92	573.22	504.19	273.11	525.11	282.46	395.52	581.31	203.79	341.56	517.88	214.21	376.15	586.1	272.07	369.44	517.93	105.01	350.91	526.73	119.53	259.41	446.5	77.076	299.27	451.26	45.551	269.06	451.89	46.15	335.3	626.77	42.234	369.06	651.69	39.147	246.73	718.6	56.735	288.28	608.91	687	90.103	719.28	626.2	89.17	649.61	608	100.77	674.01	703.91	75.817	705.34	535.79	102.2	718.29	518.9	233.41	542.54	435.74	115.43	549.26	325	110.56	503.73	368.84	121.7	588.6	390.97	103.83	444.02	213.38	129.82	457.05	221.11	223.95	362.77	228.92	181.69	356.56	204.4	215.76	350.35	203.5	153.78	496.8	97.385	108.4	534.6	89.529	220.61	584.77	70.08	170.57	501.46	1554.7	288.89	423.05	1295.6	265.84
